<?xml version="1.0" encoding="UTF-8"?>
<svg version="1.1" xmlns="http://www.w3.org/2000/svg" width="1010" height="292">
<path d="M0 0 C19.8 0 39.6 0 60 0 C60.33 43.56 60.66 87.12 61 132 C64.3 129.03 67.6 126.06 71 123 C87.79696362 111.44528528 105.45949042 107.71825773 125.52734375 111.25390625 C146.07891789 115.66937381 164.54103897 123.29237923 176.53515625 141.5234375 C184.24962937 154.56604005 185.1645109 167.9113479 185.11352539 182.78369141 C185.11367142 183.91656586 185.11381744 185.04944031 185.1139679 186.21664429 C185.11327614 189.92830377 185.10551848 193.63991188 185.09765625 197.3515625 C185.09578945 199.93801852 185.09436678 202.5244749 185.09336853 205.1109314 C185.08995199 211.20215433 185.0820858 217.29335634 185.07201904 223.38457143 C185.05969695 231.00767954 185.05426056 238.63079066 185.04882812 246.25390625 C185.0391191 259.83595162 185.01908186 273.41795739 185 287 C165.2 287 145.4 287 125 287 C124.95101562 279.81347656 124.90203125 272.62695312 124.8515625 265.22265625 C124.81616315 260.6607935 124.78019564 256.09894932 124.7421875 251.53710938 C124.68195779 244.30170395 124.62379386 237.06632444 124.578125 229.83081055 C124.5411602 223.99521102 124.49476992 218.15975455 124.44193649 212.32427788 C124.42345197 210.10166377 124.40832226 207.87901907 124.39665604 205.65635872 C124.37969174 202.53516215 124.35063229 199.414289 124.31884766 196.29321289 C124.31668747 195.38114578 124.31452728 194.46907867 124.31230164 193.52937317 C124.16553862 182.19426377 121.67903116 173.37541482 113.96875 164.83203125 C107.72743741 159.02414315 100.28351343 157.63032339 92.015625 157.71875 C84.00125957 158.46620377 77.82403843 161.62396452 72 167 C71.34 167 70.68 167 70 167 C69.773125 167.515625 69.54625 168.03125 69.3125 168.5625 C67.86204563 171.25620097 66.11803539 173.534303 64.21875 175.92578125 C60.66846956 181.96808546 60.6969867 188.35117786 60.68115234 195.15795898 C60.66608391 196.65178856 60.66608391 196.65178856 60.65071106 198.17579651 C60.61995815 201.44922335 60.60286576 204.7225687 60.5859375 207.99609375 C60.56721952 210.2729614 60.54764564 212.54982216 60.5272522 214.82667542 C60.47599168 220.80573458 60.43633331 226.78481622 60.39910889 232.76397705 C60.35197896 239.94526533 60.29040714 247.12644263 60.23126221 254.30764008 C60.1431241 265.20504843 60.07330632 276.10243631 60 287 C40.2 287 20.4 287 0 287 C0 192.29 0 97.58 0 0 Z " fill="#FAFAFA" transform="translate(176,0)"/>
<path d="M0 0 C3.6129373 2.76110655 6.83728468 5.73771772 10 9 C10.57234375 9.56332031 11.1446875 10.12664062 11.734375 10.70703125 C27.0378936 26.91771719 25.41945931 49.22362387 25.29296875 69.8359375 C25.28568191 72.52877558 25.2829508 75.22161328 25.28010559 77.91445923 C25.27084241 84.24290229 25.24630776 90.57118681 25.21605712 96.89956057 C25.17901436 104.82363477 25.16276488 112.74773561 25.14648438 120.671875 C25.11740539 134.78137298 25.05728659 148.89052584 25 163 C5.2 163 -14.6 163 -35 163 C-35.02578125 155.62011719 -35.0515625 148.24023438 -35.078125 140.63671875 C-35.10330653 135.94723141 -35.12964963 131.25780772 -35.16015625 126.56835938 C-35.20841359 119.13338013 -35.25248766 111.69854832 -35.27099609 104.26342773 C-35.28619652 98.26562468 -35.32070284 92.26820867 -35.36830902 86.27057838 C-35.38308781 83.98822211 -35.39103899 81.70581057 -35.39188385 79.4234066 C-35.39426575 76.21374146 -35.42144476 73.00513538 -35.45410156 69.7956543 C-35.4490712 68.86272552 -35.44404083 67.92979675 -35.43885803 66.96859741 C-35.6045682 56.36584577 -39.06382131 47.71687524 -46.4453125 40.10546875 C-52.53065611 35.09017791 -59.72777936 33.29238756 -67.53125 33.6875 C-77.67365567 34.97134882 -85.00190712 39.33787502 -91.8125 46.9375 C-98.01898971 55.6265856 -99.13842278 63.25950219 -99.20532227 73.76904297 C-99.21522186 74.73552261 -99.22512146 75.70200226 -99.23532104 76.69776917 C-99.26680459 79.87921737 -99.29164136 83.06068049 -99.31640625 86.2421875 C-99.33698713 88.45322041 -99.3579839 90.66424948 -99.37937927 92.87527466 C-99.43448278 98.68502694 -99.48394364 104.49481403 -99.53222656 110.30462646 C-99.5825273 116.23696987 -99.63816857 122.16926293 -99.69335938 128.1015625 C-99.80079754 139.73433195 -99.9022742 151.36714519 -100 163 C-107.67536627 163.02312821 -115.35072896 163.04091753 -123.02612209 163.05181217 C-126.58977422 163.05703995 -130.15340257 163.06413569 -133.71704102 163.07543945 C-137.81006097 163.08834176 -141.9030558 163.09322906 -145.99609375 163.09765625 C-147.92418129 163.10539818 -147.92418129 163.10539818 -149.89122009 163.11329651 C-151.66294334 163.11340981 -151.66294334 163.11340981 -153.47045898 163.11352539 C-154.51636703 163.115746 -155.56227509 163.11796661 -156.63987732 163.12025452 C-159 163 -159 163 -160 162 C-160.09918212 159.81271076 -160.12632398 157.62215387 -160.12698364 155.43261719 C-160.12854363 154.73826443 -160.13010362 154.04391167 -160.13171089 153.32851791 C-160.13572311 150.98461582 -160.1325304 148.64077766 -160.12939453 146.296875 C-160.13074847 144.62349408 -160.13252837 142.95011345 -160.13470459 141.2767334 C-160.13927976 136.7190122 -160.13748902 132.16131353 -160.1343255 127.60359192 C-160.13180233 122.84477678 -160.13413932 118.08596364 -160.13571167 113.32714844 C-160.13753349 105.33398083 -160.13512673 97.34082245 -160.13037109 89.34765625 C-160.12492845 80.09261714 -160.1266911 70.83760006 -160.1321975 61.58256149 C-160.13672827 53.65137925 -160.13737935 45.72020366 -160.13475883 37.78902054 C-160.13319586 33.04550058 -160.13300284 28.30199098 -160.13629532 23.55847168 C-160.13917352 19.09999047 -160.13719929 14.6415378 -160.13140106 10.18305969 C-160.13007319 8.54189603 -160.13046804 6.90072999 -160.13266373 5.25956726 C-160.13537417 3.02880614 -160.13199544 0.79813793 -160.12698364 -1.43261719 C-160.12660662 -2.68403503 -160.12622959 -3.93545288 -160.12584114 -5.22479248 C-160 -8 -160 -8 -159 -9 C-157.15881971 -9.09381302 -155.31402359 -9.11743954 -153.47045898 -9.11352539 C-152.28931015 -9.11344986 -151.10816132 -9.11337433 -149.89122009 -9.11329651 C-148.6058284 -9.10813522 -147.32043671 -9.10297394 -145.99609375 -9.09765625 C-144.0338662 -9.09553383 -144.0338662 -9.09553383 -142.03199768 -9.09336853 C-138.54837141 -9.0895441 -135.06478661 -9.07971446 -131.58117676 -9.06866455 C-128.02873292 -9.05844882 -124.47628241 -9.05387056 -120.92382812 -9.04882812 C-113.94919996 -9.03809212 -106.97460624 -9.02049593 -100 -9 C-99.505 -0.585 -99.505 -0.585 -99 8 C-97.783125 6.845 -96.56625 5.69 -95.3125 4.5 C-67.88077891 -19.71706627 -30.31934519 -18.53260708 0 0 Z " fill="#F9F9F9" transform="translate(877,124)"/>
<path d="M0 0 C12.30647275 9.15139047 20.62967433 21.792366 23 37 C23.91279284 43.92900698 24.13738701 50.68593002 24.11352539 57.67016602 C24.11367142 58.80289444 24.11381744 59.93562286 24.1139679 61.10267639 C24.11327525 64.81977298 24.10551335 68.53681849 24.09765625 72.25390625 C24.09578977 74.84179151 24.09436695 77.42967713 24.09336853 80.01756287 C24.08994992 86.11590227 24.08208093 92.21422082 24.07201904 98.31255239 C24.05970436 105.94339081 24.05426219 113.57423223 24.04882812 121.20507812 C24.03911441 134.8033995 24.01907792 148.40168138 24 162 C4.2 162 -15.6 162 -36 162 C-36.04898438 154.81347656 -36.09796875 147.62695312 -36.1484375 140.22265625 C-36.18383685 135.6607935 -36.21980436 131.09894932 -36.2578125 126.53710938 C-36.31804221 119.30170395 -36.37620614 112.06632444 -36.421875 104.83081055 C-36.4588398 98.99521102 -36.50523008 93.15975455 -36.55806351 87.32427788 C-36.57654803 85.10166377 -36.59167774 82.87901907 -36.60334396 80.65635872 C-36.62030826 77.53516215 -36.64936771 74.414289 -36.68115234 71.29321289 C-36.68331253 70.38114578 -36.68547272 69.46907867 -36.68769836 68.52937317 C-36.8303061 57.51519338 -39.22837084 48.57247723 -46.6328125 40.140625 C-53.01230264 34.14687147 -60.55854885 32.38303026 -69.16015625 32.6484375 C-77.10261813 33.63168588 -83.1898843 36.63681627 -89 42 C-89.66 42 -90.32 42 -91 42 C-91.226875 42.515625 -91.45375 43.03125 -91.6875 43.5625 C-93.13795437 46.25620097 -94.88196461 48.534303 -96.78125 50.92578125 C-100.33153044 56.96808546 -100.3030133 63.35117786 -100.31884766 70.15795898 C-100.33391609 71.65178856 -100.33391609 71.65178856 -100.34928894 73.17579651 C-100.38004185 76.44922335 -100.39713424 79.7225687 -100.4140625 82.99609375 C-100.43278048 85.2729614 -100.45235436 87.54982216 -100.4727478 89.82667542 C-100.52400832 95.80573458 -100.56366669 101.78481622 -100.60089111 107.76397705 C-100.64802104 114.94526533 -100.70959286 122.12644263 -100.76873779 129.30764008 C-100.8568759 140.20504843 -100.92669368 151.10243631 -101 162 C-120.8 162 -140.6 162 -161 162 C-161 105.24 -161 48.48 -161 -10 C-141.2 -10 -121.4 -10 -101 -10 C-100.505 -1.585 -100.505 -1.585 -100 7 C-98.63875 5.68 -97.2775 4.36 -95.875 3 C-68.88413262 -21.20791072 -29.36718798 -19.44997336 0 0 Z " fill="#FAFAFA" transform="translate(658,125)"/>
<path d="M0 0 C-0.63481666 4.79172903 -2.59756938 8.62977672 -4.74609375 12.890625 C-5.11726822 13.63584412 -5.48844269 14.38106323 -5.87086487 15.14886475 C-6.65388012 16.71693052 -7.43990836 18.28349493 -8.22875977 19.84863281 C-9.43823322 22.25145667 -10.63471455 24.66044382 -11.83007812 27.0703125 C-12.59298031 28.59413559 -13.35662641 30.11758651 -14.12109375 31.640625 C-14.47948837 32.36348694 -14.837883 33.08634888 -15.20713806 33.83111572 C-17.7700556 38.8850278 -17.7700556 38.8850278 -20 40 C-22.36433367 39.15111155 -24.63417638 38.24210955 -26.9375 37.25 C-41.52461871 31.22790658 -55.31340294 28.2144741 -71 32 C-71.99 32.495 -71.99 32.495 -73 33 C-73.62222887 34.94601054 -73.62222887 34.94601054 -73.875 37.25 C-74.05675781 38.40242188 -74.05675781 38.40242188 -74.2421875 39.578125 C-73.88781169 43.12188311 -72.51498622 44.52146285 -70 47 C-66.89777747 48.71999368 -66.89777747 48.71999368 -63.3125 50 C-62.65822021 50.25217285 -62.00394043 50.5043457 -61.32983398 50.76416016 C-56.4782843 52.58542789 -51.55566733 54.00309928 -46.5625 55.375 C-28.51173229 60.4328321 -10.49847435 70.24899598 -1 87 C1.89801587 93.20277081 3.56013728 99.18212779 4 106 C4.0515625 106.63679688 4.103125 107.27359375 4.15625 107.9296875 C4.81025632 122.37232703 0.48668557 136.64556101 -8.6875 147.8125 C-24.75397489 164.6716283 -49.24848156 168.45006613 -71.44921875 169.2265625 C-95.20393684 169.74490757 -122.46287323 165.15051256 -141 149 C-142.0173873 148.01769502 -143.02596117 147.02530403 -144 146 C-142.53969323 142.04203995 -140.66698928 138.54763201 -138.515625 134.921875 C-138.00850983 134.06556488 -138.00850983 134.06556488 -137.4911499 133.19195557 C-136.77673813 131.9874666 -136.06057905 130.78401248 -135.34277344 129.58154297 C-134.26304107 127.77185749 -133.18968902 125.95850921 -132.1171875 124.14453125 C-128.25671068 117.63809461 -124.29054103 111.23296361 -120 105 C-119.33049316 105.44512939 -118.66098633 105.89025879 -117.97119141 106.34887695 C-96.44752563 120.63946914 -96.44752563 120.63946914 -71.4375 123.4375 C-67.10408771 122.4841493 -63.87442599 121.56825295 -61 118 C-59.72126919 114.4035696 -59.95249999 112.24181824 -60.6875 108.5 C-64.44713739 100.91418297 -76.36711271 98.44965809 -83.8125 95.625 C-101.72083002 88.82051166 -120.31932478 79.20335971 -129.17578125 61.25 C-131.45405372 55.03064007 -132.36467295 49.2635596 -132.3125 42.6875 C-132.30758545 41.9462085 -132.3026709 41.20491699 -132.29760742 40.44116211 C-132.03178828 27.90131471 -127.62269094 16.10808252 -119.00390625 6.875 C-88.65011281 -21.52621024 -34.86353773 -17.43176886 0 0 Z " fill="#FAFAFA" transform="translate(144,123)"/>
<path d="M0 0 C19.47 0 38.94 0 59 0 C59 56.76 59 113.52 59 172 C39.53 172 20.06 172 0 172 C0 115.24 0 58.48 0 0 Z " fill="#FDFDFD" transform="translate(397,115)"/>
<path d="M0 0 C7.71317706 6.36552159 13.74828749 14.64328729 15.1015625 24.734375 C16.02255916 37.33748712 14.0431396 46.20149971 6.2734375 56.25390625 C-0.66912495 64.18291193 -10.10838806 69.16141521 -20.66015625 69.9375 C-33.13139368 70.13730621 -41.44582806 67.01099051 -50.8984375 58.734375 C-58.91186083 50.3061782 -62.28617963 40.17234391 -62.1015625 28.6953125 C-61.33098397 17.46264857 -56.31102092 8.24674672 -47.8359375 0.796875 C-33.06604572 -9.57347455 -15.09640758 -10.77552767 0 0 Z " fill="#506EF9" transform="translate(994.8984375,222.265625)"/>
<path d="M0 0 C8.8293214 6.5727935 14.60114372 14.91926095 16.8203125 25.72265625 C18.23779256 35.92851266 16.51182397 45.77277893 10.56640625 54.26953125 C7.19720454 58.46409498 3.71018494 62.15559176 -0.68359375 65.26953125 C-1.225 65.65753906 -1.76640625 66.04554687 -2.32421875 66.4453125 C-11.02775214 72.03753605 -21.71553797 72.24092798 -31.55859375 70.20703125 C-42.28780817 67.31163165 -50.58189324 60.14040012 -56.22265625 50.69140625 C-61.12392408 40.66981951 -61.54180971 28.87375074 -58.12109375 18.26953125 C-53.48269157 7.6028224 -45.34454801 -0.24243408 -34.55859375 -4.66796875 C-22.93340212 -7.96589545 -10.12346111 -6.5279378 0 0 Z " fill="#506EFA" transform="translate(447.68359375,12.73046875)"/>
<path d="M0 0 C0.66 0.33 1.32 0.66 2 1 C-1.63 4.63 -5.26 8.26 -9 12 C-9.66 11.67 -10.32 11.34 -11 11 C-7.6189962 6.86378916 -4.33409466 3.18683431 0 0 Z " fill="#B4B4B4" transform="translate(32,124)"/>
<path d="M0 0 C0.66 0.33 1.32 0.66 2 1 C-1.3 4.3 -4.6 7.6 -8 11 C-8.66 10.67 -9.32 10.34 -10 10 C-6.92118304 6.12948725 -3.99926986 2.97088618 0 0 Z " fill="#3F56C4" transform="translate(404,13)"/>
</svg>
