<?xml version="1.0" encoding="UTF-8"?>
<svg version="1.1" xmlns="http://www.w3.org/2000/svg" width="184" height="131">
<path d="M0 0 C-0.61646837 4.00225317 -1.89229674 7.13536305 -3.72265625 10.73828125 C-4.26083984 11.80498047 -4.79902344 12.87167969 -5.35351562 13.97070312 C-5.91748047 15.07349609 -6.48144531 16.17628906 -7.0625 17.3125 C-7.63033203 18.43462891 -8.19816406 19.55675781 -8.78320312 20.71289062 C-10.18342977 23.47804408 -11.58918665 26.24023716 -13 29 C-13.88860718 28.70343506 -13.88860718 28.70343506 -14.79516602 28.40087891 C-16.42593347 27.85690207 -18.05688131 27.31346577 -19.68798828 26.77050781 C-21.36453951 26.21177543 -23.04002244 25.64983417 -24.71484375 25.0859375 C-34.29055922 22.02305487 -42.22529746 21.48353403 -52 24 C-52.9363921 27.29945591 -52.9363921 27.29945591 -53 31 C-49.75207195 34.20777969 -46.63897205 35.71677167 -42.31640625 37.04296875 C-41.23004883 37.3898877 -40.14369141 37.73680664 -39.02441406 38.09423828 C-37.88198242 38.45501465 -36.73955078 38.81579102 -35.5625 39.1875 C-23.30891572 43.24664784 -8.9413096 48.15317124 -2 60 C3.97443299 72.35754055 4.50560793 83.99908553 0 97 C-4.22210317 106.93773943 -11.91416641 112.92108208 -21.625 117.3125 C-44.31559763 125.32723229 -70.27463496 124.16690285 -92 114 C-95.13578591 112.1628729 -98.07797092 110.15673575 -101 108 C-101.99 107.34 -102.98 106.68 -104 106 C-102.55287861 102.06623115 -100.69186875 98.62639327 -98.5234375 95.04296875 C-97.853125 93.93115234 -97.1828125 92.81933594 -96.4921875 91.67382812 C-95.78653878 90.5116699 -95.0808086 89.34956113 -94.375 88.1875 C-93.66111835 87.00606474 -92.94757321 85.82442608 -92.234375 84.64257812 C-90.49288205 81.75970129 -88.74798618 78.87894276 -87 76 C-83.88357586 77.2161266 -81.14650592 78.43837595 -78.375 80.3125 C-69.92789103 85.72443103 -60.29816101 90.79108822 -50.02734375 88.57421875 C-47.82803242 87.91917475 -47.82803242 87.91917475 -45 86 C-43.49839552 82.65551712 -43.49839552 82.65551712 -44 79 C-48.07240352 73.60449492 -53.44362041 71.93571884 -59.625 69.625 C-72.87061435 64.41955449 -87.03413124 58.04207266 -93.5625 44.4375 C-96.76622814 34.9591891 -96.23484585 23.5467708 -92.32421875 14.39453125 C-86.24445555 3.40074116 -75.82524824 -3.20613744 -64.125 -6.91015625 C-42.73694952 -12.43711641 -19.77818591 -9.46250463 0 0 Z " fill="#F8F8F8" transform="translate(104,9)"/>
<path d="M0 0 C6.06289352 4.60967419 9.69648021 11.55033391 11.140625 18.90234375 C11.86462242 27.87991182 9.47277811 35.09248978 3.80859375 42.11328125 C-2.12777604 48.4806287 -8.54361279 50.90211586 -17.234375 51.27734375 C-25.77034784 51.07883275 -31.94528304 47.55899448 -38.1328125 41.83984375 C-43.59417784 35.71125278 -45.162651 28.76274512 -45.078125 20.75390625 C-44.53812811 13.71466103 -41.32788182 7.1264785 -36.140625 2.3046875 C-24.90323267 -6.76995274 -12.42508024 -7.33497384 0 0 Z " fill="#4F6DF7" transform="translate(172.859375,80.09765625)"/>
</svg>
