<?xml version="1.0" encoding="UTF-8"?>
<svg version="1.1" xmlns="http://www.w3.org/2000/svg" width="184" height="131">
<path d="M0 0 C-0.61646837 4.00225317 -1.89229674 7.13536305 -3.72265625 10.73828125 C-4.26083984 11.80498047 -4.79902344 12.87167969 -5.35351562 13.97070312 C-5.91748047 15.07349609 -6.48144531 16.17628906 -7.0625 17.3125 C-7.63033203 18.43462891 -8.19816406 19.55675781 -8.78320312 20.71289062 C-10.18342977 23.47804408 -11.58918665 26.24023716 -13 29 C-14.41051626 28.53494466 -15.82058401 28.06852888 -17.23046875 27.6015625 C-18.01574951 27.34197754 -18.80103027 27.08239258 -19.61010742 26.81494141 C-21.86360199 26.04651104 -24.08682717 25.21996157 -26.3125 24.375 C-35.01992302 21.50291806 -43.24454933 21.51928898 -52 24 C-52.9363921 27.29945591 -52.9363921 27.29945591 -53 31 C-49.72904786 34.2337737 -46.55762178 35.74960868 -42.2109375 37.11328125 C-41.10363281 37.47486328 -39.99632813 37.83644531 -38.85546875 38.20898438 C-36.55982571 38.93683977 -34.26297064 39.66088491 -31.96484375 40.38085938 C-24.15962122 42.93898722 -17.70970377 46.27167066 -11 51 C-10.40840088 51.39525879 -9.81680176 51.79051758 -9.20727539 52.19775391 C-2.69856269 56.97185546 1.42018404 64.87938233 2.75390625 72.73046875 C4.00863735 84.30187778 2.32244857 95.63866605 -5 105 C-14.89668026 116.54612697 -29.2839432 120.77868791 -44 122 C-64.60291709 123.07796207 -83.94028586 120.59169377 -101 108 C-101.99 107.34 -102.98 106.68 -104 106 C-102.55287861 102.06623115 -100.69186875 98.62639327 -98.5234375 95.04296875 C-97.853125 93.93115234 -97.1828125 92.81933594 -96.4921875 91.67382812 C-95.78653878 90.5116699 -95.0808086 89.34956113 -94.375 88.1875 C-93.66111835 87.00606474 -92.94757321 85.82442608 -92.234375 84.64257812 C-90.49288205 81.75970129 -88.74798618 78.87894276 -87 76 C-83.88357586 77.2161266 -81.14650592 78.43837595 -78.375 80.3125 C-70.2378234 85.52586219 -61.80695322 89.66487818 -52 89 C-49.45025834 88.22245502 -47.38951877 87.24254976 -45 86 C-43.56264754 83.12529507 -43.61827351 81.18105412 -44 78 C-48.29165429 73.55539367 -53.91721961 71.89476111 -59.5625 69.75 C-73.16493 64.37578839 -86.86482479 57.72864175 -93.2734375 43.796875 C-96.48413071 35.85645093 -96.12855139 25.26638122 -93.5625 17.125 C-89.41045354 7.4368916 -81.49086819 0.30666707 -72 -4 C-48.84954228 -12.58139732 -22.10517192 -11.05258596 0 0 Z " fill="#060606" transform="translate(104,9)"/>
<path d="M0 0 C6.14575251 4.25564372 10.04782841 9.59739187 12.0703125 16.80859375 C13.62659368 25.7218405 12.25122051 33.07594214 7.47265625 40.83203125 C3.11085402 46.3966703 -3.26157714 50.42288328 -10.2421875 51.74609375 C-19.54614573 52.5816824 -26.80257502 51.09017096 -34.0546875 45.05859375 C-40.2038569 39.23137039 -43.29268117 32.58803508 -43.5546875 24.12109375 C-43.4497111 16.20120777 -40.47193134 9.09317702 -35.0859375 3.28125 C-24.72444399 -5.34601048 -11.74939449 -6.57065441 0 0 Z " fill="#5674FF" transform="translate(171.2421875,79.25390625)"/>
</svg>
